The story centers on a year in the life of three men trying to survive a round of corporate downsizing at a major company - and how that affects them, their families, and their communities...
 
http://www.imdb.com/title/tt1172991/

Subs: Dutch, English.


Wanneer het succesvolle bedrijf dat Gene McClary heeft opgebouwd uit zijn handen glipt, raakt hij in conflict met zijn partners om zijn jarenlange collega Phil te beschermen. Daarnaast zoekt hij troost in een affaire met zijn collega Sally. Sally ontslaat de arrogante bedrijfsmedewerker Bobby Walker, die zich hierna wanhopig probeert vast te houden aan de symbolen van zijn status; zijn hoge salaris en zijn Porsche. Bobby wordt nu gedwongen een baan in de bouw te accepteren, die zijn hardwerkende schoonbroer Jack Dolan hem aanbiedt...
 
http://www.moviemeter.nl/film/61384

Subs: Engels, Nederlands.

General
Complete name                    : The Company Men-AC3-XviD-BRRip 2010.avi
Format                           : AVI
Format/Info                      : Audio Video Interleave
File size                        : 1.56 GiB
Duration                         : 1h 44mn
Overall bit rate                 : 2 133 Kbps
Writing application              : VirtualDubMod 1.5.4.1 (build 2178/release)
Writing library                  : VirtualDubMod build 2178/release
Source                           : The.Company.Men.LIMITED.720p.BluRay.x264-DiVERSiFY

Video
ID                               : 0
Format                           : MPEG-4 Visual
Format profile                   : Simple@L3
Format settings, BVOP            : No
Format settings, QPel            : No
Format settings, GMC             : No warppoints
Format settings, Matrix          : Default (H.263)
Codec ID                         : XVID
Codec ID/Hint                    : XviD
Duration                         : 1h 44mn
Bit rate                         : 1 676 Kbps
Width                            : 720 pixels
Height                           : 400 pixels
Display aspect ratio             : 16:9
Frame rate                       : 23.976 fps
Resolution                       : 8 bits
Colorimetry                      : 4:2:0
Scan type                        : Progressive
Bits/(Pixel*Frame)               : 0.243
Stream size                      : 1.22 GiB (79%)
Writing library                  : XviD 1.1.2 (UTC 2006-11-01)

Audio
ID                               : 1
Format                           : AC-3
Format/Info                      : Audio Coding 3
Codec ID                         : 2000
Duration                         : 1h 44mn
Bit rate mode                    : Constant
Bit rate                         : 448 Kbps
Channel(s)                       : 6 channels
Channel positions                : Front: L C R, Surround: L R, LFE
Sampling rate                    : 48.0 KHz
Stream size                      : 335 MiB (21%)
Alignment                        : Split accross interleaves
Interleave, duration             : 42 ms (1.00 video frame)
Interleave, preload duration     : 500 ms

Enjoy...

TBS.